<svg width="40" height="41" viewBox="0 0 40 41" fill="none" xmlns="http://www.w3.org/2000/svg">
<path id="Subtract" d="M0 20.5C0 31.5457 8.95431 40.5 20 40.5C31.0457 40.5 40 31.5457 40 20.5C40 9.45431 31.0457 0.5 20 0.5C8.95431 0.5 0 9.45431 0 20.5ZM14.7595 27.5082C14.2714 27.9964 13.4799 27.9964 12.9917 27.5082C12.5036 27.0201 12.5036 26.2286 12.9917 25.7405L23.2322 15.5L16.3129 15.5C15.6226 15.5 15.0629 14.9403 15.0629 14.25C15.0629 13.5596 15.6226 13 16.3129 13L26.25 13C26.9404 13 27.5 13.5596 27.5 14.25V24.1872C27.5 24.8775 26.9404 25.4372 26.25 25.4372C25.5596 25.4372 25 24.8775 25 24.1872L25 17.2677L14.7595 27.5082Z" fill="white"/>
</svg>
