<svg width="32" height="61" viewBox="0 0 32 61" fill="none" xmlns="http://www.w3.org/2000/svg">
    <path d="M29.2268 28.978C27.4294 29.5996 23.6636 30.6898 21.177 29.942C21.177 29.942 22.7581 29.6987 23.8708 29.1402C21.695 29.1627 16.294 27.1491 16.1363 22.8877C21.3617 29.3789 28.3529 27.2077 28.8304 26.4644C27.5556 22.0003 21.8617 18.4957 20.1995 17.5542C19.4787 18.2479 18.3256 19.0452 16.5507 19.5317C16.5507 19.5317 16.7129 19.32 16.9606 18.9777L16.0687 19.7074L15.866 19.5498V22.8922C15.7174 27.1446 10.2983 29.1762 8.13154 29.1447C9.24418 29.7032 10.8253 29.9465 10.8253 29.9465C8.33875 30.6898 4.57286 29.5996 2.77551 28.9825C1.15834 31.0681 6.43779 33.4151 7.79819 33.6448H11.4965C11.8659 33.9646 13.7218 35.5953 14.0506 35.8791C14.0506 36.0278 14.1092 42.7802 14.1092 42.9289L15.8615 44.7217L15.9966 44.8614L17.8886 42.9289C17.8886 42.7982 17.9472 36.0097 17.9472 35.8791C18.285 35.5818 20.1229 33.9781 20.5013 33.6448C20.5013 33.6448 24.1996 33.6448 24.1951 33.6448C25.56 33.4151 30.8395 31.0726 29.2178 28.9825L29.2268 28.978Z" fill="url(#paint0_linear_206_1587)"/>
    <path d="M28.8801 28.9239C27.0827 29.5456 23.3168 30.6357 20.8303 29.8879C20.8303 29.8879 22.4114 29.6447 23.524 29.0861C21.3483 29.1086 15.9472 27.095 15.7896 22.8336C21.015 29.3248 28.0062 27.1536 28.4837 26.4103C27.2088 21.9462 21.515 18.4416 19.8528 17.5001C19.132 18.1938 17.9788 18.9912 16.204 19.4777C16.204 19.4777 16.3662 19.2659 16.6139 18.9236L15.722 19.6533L15.5193 19.4957V44.6677L15.6544 44.8073L17.5464 42.8748C17.5464 42.7442 17.6049 35.9557 17.6049 35.825C17.9428 35.5277 19.7807 33.9241 20.1591 33.5907C20.1591 33.5907 23.8574 33.5907 23.8529 33.5907C25.2178 33.361 30.4972 31.0186 28.8756 28.9284L28.8801 28.9239Z" fill="url(#paint1_linear_206_1587)"/>
    <path d="M15.9021 2.51324C15.7895 2.58982 15.6589 2.68442 15.5192 2.78803C14.4607 3.56283 12.6543 5.04486 10.9065 7.2161C11.2939 8.54497 12.2309 11.2613 12.812 14.1172V13.2208L14.1769 14.7704V11.7478L15.6589 16.0587L17.204 11.7478V16.1128L19.3887 13.2523C20.114 10.2928 21.0014 8.38731 21.3528 7.2161C19.3707 4.75656 16.8616 3.17543 15.9066 2.51324H15.9021Z" fill="url(#paint2_linear_206_1587)"/>
    <path d="M14.8616 18.9782C15.0508 19.28 15.1814 19.4737 15.1814 19.4737C13.3841 18.9827 12.4921 18.1314 11.821 17.1223L11.6813 17.2304L9.75332 18.5503C9.54611 18.6899 9.32988 18.8341 9.10465 18.9917L9.07762 19.0098C6.75323 20.645 3.70808 23.2982 2.81616 26.4109C3.29365 27.1587 10.2849 29.3254 15.5103 22.8342V19.4918L14.8526 18.9782H14.8616Z" fill="url(#paint3_linear_206_1587)"/>
    <path d="M16.6139 18.9197L19.2131 16.7845L18.8076 13.7619L19.8843 12.4195L18.9338 13.2529C18.6455 14.4286 18.3842 15.5592 18.1905 16.4917C17.677 17.4061 17.0238 18.3476 16.6094 18.9242L16.6139 18.9197Z" fill="#870000"/>
    <path d="M13.0369 14.437C12.9693 14.0406 12.8927 13.6351 12.8117 13.2207L12.4963 17.1217L14.8658 18.9776C14.4468 18.3155 13.7351 17.1443 13.5054 16.4505L13.0414 14.437H13.0369Z" fill="#870000"/>
    <path d="M12.1991 10.5772L11.4828 7.71221L14.8433 4.68959L15.8523 7.37436L16.8614 4.68959L20.2218 7.71221L19.5506 11.0727L21.5642 6.03197L15.519 0.991272L9.46924 6.70317L12.1991 10.5772Z" fill="#DB3541"/>
    <path d="M28.7402 40.9831V31.9152L25.1996 37.2848L19.812 39.9785V57.6278C20.9562 56.925 22.0058 56.1142 22.9563 55.2628L21.5013 47.0373L24.5419 53.7132C25.2356 52.979 25.8573 52.2447 26.3978 51.5465L24.0194 46.195L27.3798 50.2266C28.56 48.5509 29.1817 47.3346 29.1817 47.3346L27.1636 42.6678L28.7402 40.9876V40.9831Z" fill="url(#paint4_linear_206_1587)"/>
    <path d="M7.78461 29.0866C8.89726 29.6451 10.4784 29.8884 10.4784 29.8884C7.99182 30.6317 4.22594 29.5415 2.42858 28.9244C0.811416 31.01 6.09086 33.357 7.45127 33.5867H11.1496C11.519 33.9065 13.3749 35.5372 13.7037 35.821C13.7037 35.9697 13.7623 42.7221 13.7623 42.8708L15.5146 44.6636V22.8341C15.3659 27.0865 9.94685 29.1181 7.78011 29.0866H7.78461Z" fill="url(#paint5_linear_206_1587)"/>
    <path d="M2.12646 47.33C2.12646 47.33 2.74811 48.5462 3.92832 50.222L7.28879 46.1903L4.91034 51.5418C5.4554 52.2401 6.07704 52.9743 6.76625 53.7086L9.80689 47.0327L8.35189 55.2582C9.30237 56.1096 10.352 56.9204 11.4961 57.6231V39.9739L6.10857 37.2801L2.56792 31.9106V40.9784L4.14455 42.6587L2.12646 47.3255V47.33Z" fill="url(#paint6_linear_206_1587)"/>
    <path d="M27.9473 50.0552L24.5913 47.0326L27.3436 51.3976L27.9473 50.0552Z" fill="white"/>
    <path d="M21.9019 48.037L25.3254 54.0867L24.3209 54.4246L21.9019 48.037Z" fill="white"/>
    <path d="M22.5729 28.4829C17.5097 27.7487 15.8745 22.8341 15.8745 22.8341C16.3745 27.3297 19.0818 28.4694 20.4377 28.7577L21.9378 28.6586L22.5729 28.4829Z" fill="white"/>
    <path d="M10.9196 17.4775L10.6088 17.9595C10.6088 17.9595 10.4781 20.1443 15.181 21.1533C15.2756 21.1533 15.0278 21.0227 14.6134 20.7794C12.0548 19.829 11.1854 18.1938 10.9196 17.473V17.4775Z" fill="white"/>
    <path d="M15.5189 22.8341C15.5189 22.8341 13.9062 27.6766 8.92407 28.4649C9.02768 28.51 9.1448 28.5595 9.27994 28.6091L10.0592 28.8253C10.1178 28.8388 10.1764 28.8478 10.2349 28.8568C10.771 28.8343 14.8882 28.4919 15.5189 22.8386V22.8341Z" fill="white"/>
    <path d="M3.67163 49.8524L6.81137 46.7622L4.09056 51.3975L3.67163 49.8524Z" fill="white"/>
    <path d="M9.28418 48.1768L6.1084 54.0869L7.11744 54.4248L9.28418 48.1768Z" fill="white"/>
    <path opacity="0.7" d="M18.8751 15.442L15.6813 19.8655L13.0506 15.7798L10.8118 17.1222C10.8118 17.1222 11.3478 19.9826 15.5597 21.0818C15.6002 21.0908 15.6408 21.1043 15.6858 21.1133C15.7263 21.1043 15.7669 21.0908 15.8119 21.0818C20.0238 19.9871 20.5598 17.1222 20.5598 17.1222L18.8796 15.442H18.8751Z" fill="#6C7C8A"/>
    <path opacity="0.7" d="M23.582 28.5464C23.582 28.5464 26.9424 27.5373 29.6317 27.204C29.6317 27.204 23.9198 32.578 18.5413 28.8842L23.582 28.5464Z" fill="#6C7C8A"/>
    <path opacity="0.7" d="M25.2628 53.416L23.5825 45.686L26.943 51.0646L25.2628 53.416Z" fill="#6C7C8A"/>
    <path opacity="0.7" d="M21.6501 56.3983L21.2312 46.3574L23.9205 54.4207C23.9205 54.4207 22.9114 56.7722 22.5781 56.7722C22.2447 56.7722 21.6546 56.3938 21.6546 56.3938L21.6501 56.3983Z" fill="#6C7C8A"/>
    <path opacity="0.7" d="M28.9566 31.906L26.2673 44.001L29.6278 40.6405L28.9566 31.906Z" fill="#6C7C8A"/>
    <path opacity="0.7" d="M8.45989 28.2122C8.45989 28.2122 9.80227 29.2213 12.4915 28.8834C12.4915 28.8834 9.13108 32.2439 3.41919 28.2122H8.45989Z" fill="#6C7C8A"/>
    <path opacity="0.7" d="M2.41045 31.906L5.09973 44.001L1.73926 40.6405L2.41045 31.906Z" fill="#6C7C8A"/>
    <path opacity="0.7" d="M6.10894 53.416L7.78918 45.686L4.42871 51.0646L6.10894 53.416Z" fill="#6C7C8A"/>
    <path opacity="0.7" d="M9.72152 56.3983L10.1404 46.3574L7.45117 54.4207C7.45117 54.4207 8.46021 56.7722 8.79356 56.7722C9.1269 56.7722 9.71701 56.3938 9.71701 56.3938L9.72152 56.3983Z" fill="#6C7C8A"/>
    <path d="M30.5872 41.713V32.1767C32.344 29.8974 30.3394 26.199 30.3394 26.199C28.6502 20.5907 24.1365 18.2709 20.5689 15.523C21.4968 11.4778 23.096 7.21645 23.0915 7.28402L23.2446 6.76598L22.9158 6.33804C19.294 1.82889 16.9201 0.671193 15.902 0C15.8255 0.0405418 15.6903 0.112619 15.5191 0.22073C14.3524 0.936969 11.2037 3.16227 8.55946 6.76598L8.71262 7.28402C8.72163 7.25699 10.2802 11.3923 11.2172 15.4374L9.48742 16.514C6.92427 18.1087 2.1088 21.6403 0.969129 26.199C0.969129 26.199 -1.03544 29.8928 0.721372 32.1722V41.7085L2.298 43.3888L0.279918 47.3258L0.302439 47.5961C0.284421 48.8484 6.64498 57.8892 13.3434 60.9209V45.6771C13.411 45.7312 15.0371 47.006 15.5191 47.3844C15.6002 47.452 15.6543 47.4925 15.6543 47.4925C15.6408 47.506 17.8976 45.7267 17.9652 45.6771V60.9209C24.6861 57.8757 31.0422 48.8169 31.0061 47.5961L31.0287 47.3258L29.0106 43.3888L30.5872 41.7085V41.713ZM11.492 57.6235C10.3478 56.9207 9.29822 56.1099 8.34774 55.2585L9.80274 47.033L6.76211 53.7089C6.06839 52.9747 5.44675 52.2404 4.90619 51.5422L7.28464 46.1907L3.92418 50.2223C2.74396 48.5466 2.12232 47.3303 2.12232 47.3303L4.1404 42.6635L2.56377 40.9833V31.9154L6.10443 37.285L11.492 39.9788V57.628V57.6235ZM17.6003 35.821C17.6003 35.9516 17.5417 42.7401 17.5417 42.8707L15.6498 44.8032L15.5146 44.6636L13.7623 42.8707C13.7623 42.7176 13.7038 35.9696 13.7038 35.821C13.3749 35.5327 11.519 33.9065 11.1496 33.5867H7.45132C6.08641 33.3569 0.806961 31.01 2.42863 28.9243C4.22599 29.546 7.99187 30.6361 10.4784 29.8883C10.4784 29.8883 8.89731 29.6451 7.78466 29.0865C9.9514 29.118 15.3705 27.0864 15.5191 22.8341C10.2937 29.3253 3.30254 27.154 2.82505 26.4108C3.71697 23.2935 6.76211 20.6448 9.0865 19.0096L9.11353 18.9916C9.33877 18.8339 9.55499 18.6853 9.7622 18.5501L11.6902 17.2303L11.8298 17.1222C12.501 18.1312 13.3929 18.9826 15.1903 19.4736C15.1903 19.4736 13.8479 17.4555 13.5101 16.451L13.0461 14.4374C12.5236 11.3247 11.3568 8.73902 10.9154 7.21645C12.6632 5.04521 14.4741 3.56318 15.5282 2.78838C15.6678 2.68477 15.7984 2.59017 15.9111 2.51359C16.866 3.17578 18.9247 4.75691 20.9112 7.21645C20.4157 8.84713 18.8796 13.2076 18.2039 16.487C17.3886 17.942 16.2174 19.4736 16.2174 19.4736C17.9967 18.9871 19.1454 18.1943 19.8661 17.4961C21.5283 18.4375 27.2222 21.9466 28.497 26.4062C28.0195 27.154 21.0283 29.3208 15.8029 22.8296C15.9606 27.091 21.3617 29.1045 23.5374 29.082C22.4248 29.6406 20.8436 29.8838 20.8436 29.8838C23.3302 30.6271 27.0961 29.537 28.8934 28.9198C30.5106 31.0055 25.2312 33.3524 23.8708 33.5822H20.1769C19.7986 33.9155 17.9607 35.5192 17.6228 35.8165L17.6003 35.821ZM29.1772 47.3303C29.1772 47.3303 28.5556 48.5466 27.3754 50.2223L24.0149 46.1907L26.3934 51.5422C25.8483 52.2404 25.2267 52.9747 24.5374 53.7089L21.4968 47.033L22.9518 55.2585C22.0013 56.1099 20.9517 56.9207 19.8076 57.6235V39.9743L25.1951 37.2805L28.7358 31.9109V40.9788L27.1592 42.659L29.1772 47.3258V47.3303Z" fill="#1C1B35"/>
    <path d="M17.4427 14.7167L17.1949 11.7481L15.6498 15.6131L14.1678 11.7481V14.7707L12.8029 13.2211L12.5461 12.9599L13.411 16.505L14.7714 18.8609C14.7985 18.9015 14.8345 18.942 14.8525 18.9781L15.4336 20.0096L15.5147 20.1448H15.8481L16.6093 18.9195C17.0238 18.3429 17.6769 17.4014 18.1905 16.487C18.3842 15.5545 18.9427 14.0995 19.231 12.9238L17.4427 14.7122V14.7167Z" fill="url(#paint7_linear_206_1587)"/>
    <path d="M9.98322 35.5551H8.69489L7.1543 35.2127L8.18136 35.9289L9.1003 36.5686L11.1815 37.6092V36.456L9.98322 35.5551Z" fill="url(#paint8_linear_206_1587)"/>
    <path d="M21.3257 35.7397H22.614L24.1546 35.3973L23.123 36.1136L22.2086 36.7532L20.1274 37.7938V36.6406L21.3257 35.7397Z" fill="url(#paint9_linear_206_1587)"/>
    <defs>
        <linearGradient id="paint0_linear_206_1587" x1="22.3662" y1="18.802" x2="9.49193" y2="41.1" gradientUnits="userSpaceOnUse">
            <stop stop-color="#F2F2F2"/>
            <stop offset="1" stop-color="#9FACBC"/>
        </linearGradient>
        <linearGradient id="paint1_linear_206_1587" x1="24.8935" y1="20.4056" x2="12.0192" y2="42.7036" gradientUnits="userSpaceOnUse">
            <stop stop-color="#F2F2F2"/>
            <stop offset="1" stop-color="#9FACBC"/>
        </linearGradient>
        <linearGradient id="paint2_linear_206_1587" x1="10.902" y1="9.31076" x2="21.3438" y2="9.31076" gradientUnits="userSpaceOnUse">
            <stop stop-color="#FD9D05"/>
            <stop offset="1" stop-color="#FD6A07"/>
        </linearGradient>
        <linearGradient id="paint3_linear_206_1587" x1="12.9787" y1="17.789" x2="6.67665" y2="28.6993" gradientUnits="userSpaceOnUse">
            <stop stop-color="#F2F2F2"/>
            <stop offset="1" stop-color="#9FACBC"/>
        </linearGradient>
        <linearGradient id="paint4_linear_206_1587" x1="30.6457" y1="33.0144" x2="17.2804" y2="56.1637" gradientUnits="userSpaceOnUse">
            <stop stop-color="#F2F2F2"/>
            <stop offset="1" stop-color="#9FACBC"/>
        </linearGradient>
        <linearGradient id="paint5_linear_206_1587" x1="16.6453" y1="23.4873" x2="7.1945" y2="39.8617" gradientUnits="userSpaceOnUse">
            <stop stop-color="#F2F2F2"/>
            <stop offset="1" stop-color="#9FACBC"/>
        </linearGradient>
        <linearGradient id="paint6_linear_206_1587" x1="11.4826" y1="37.0594" x2="2.58144" y2="52.4788" gradientUnits="userSpaceOnUse">
            <stop stop-color="#F2F2F2"/>
            <stop offset="1" stop-color="#9FACBC"/>
        </linearGradient>
        <linearGradient id="paint7_linear_206_1587" x1="15.8931" y1="11.7481" x2="15.8931" y2="20.1448" gradientUnits="userSpaceOnUse">
            <stop stop-color="#DB3541"/>
            <stop offset="1" stop-color="#DB451E"/>
        </linearGradient>
        <linearGradient id="paint8_linear_206_1587" x1="7.1543" y1="36.4109" x2="11.1815" y2="36.4109" gradientUnits="userSpaceOnUse">
            <stop stop-color="#FD9D05"/>
            <stop offset="1" stop-color="#FD6A07"/>
        </linearGradient>
        <linearGradient id="paint9_linear_206_1587" x1="20.1274" y1="36.5956" x2="24.1546" y2="36.5956" gradientUnits="userSpaceOnUse">
            <stop stop-color="#FD9D05"/>
            <stop offset="1" stop-color="#FD6A07"/>
        </linearGradient>
    </defs>
</svg>
