<svg width="33" height="33" viewBox="0 0 33 33" fill="none" xmlns="http://www.w3.org/2000/svg">
<path d="M0 16.5C0 25.6127 7.3873 33 16.5 33C25.6127 33 33 25.6127 33 16.5C33 7.3873 25.6127 0 16.5 0C7.3873 0 0 7.3873 0 16.5ZM12.1766 22.2818C11.7739 22.6845 11.1209 22.6845 10.7182 22.2818C10.3155 21.8791 10.3155 21.2261 10.7182 20.8234L19.1666 12.375L13.4582 12.375C12.8886 12.375 12.4269 11.9133 12.4269 11.3437C12.4269 10.7742 12.8886 10.3125 13.4582 10.3125L21.6562 10.3125C22.2258 10.3125 22.6875 10.7742 22.6875 11.3437V19.5419C22.6875 20.1115 22.2258 20.5732 21.6562 20.5732C21.0867 20.5732 20.625 20.1115 20.625 19.5419L20.625 13.8334L12.1766 22.2818Z" fill="white"/>
</svg>
