<svg width="304" height="149" viewBox="0 0 304 149" fill="none" xmlns="http://www.w3.org/2000/svg">
<path d="M108.677 70.9587C107.834 70.159 107.417 69.0744 107.417 67.7269V44.5125H100.461C99.0147 44.5125 97.941 44.2057 97.2289 43.6032C96.5168 43.0006 96.1663 42.0694 96.1663 40.8205C96.1663 39.5716 96.5168 38.6513 97.2289 38.0597C97.9301 37.4682 99.0147 37.1724 100.461 37.1724H123.533C124.979 37.1724 126.053 37.4682 126.765 38.0597C127.477 38.6513 127.827 39.5716 127.827 40.8205C127.827 42.0694 127.477 43.0006 126.765 43.6032C126.053 44.2167 124.979 44.5125 123.533 44.5125H116.576V67.7269C116.576 69.0744 116.16 70.148 115.316 70.9587C114.484 71.7694 113.366 72.1638 111.986 72.1638C110.605 72.1638 109.499 71.7585 108.655 70.9587H108.677Z" fill="white"/>
<path d="M160.858 68.6603C160.858 69.712 160.42 70.5884 159.555 71.3005C158.678 72.0016 157.67 72.3632 156.52 72.3632C155.731 72.3632 154.986 72.1769 154.307 71.8264C153.617 71.4648 153.025 70.928 152.532 70.194L146.123 60.8272C145.663 60.1698 145.181 59.6878 144.666 59.3701C144.151 59.0634 143.56 58.899 142.87 58.899H139.66V67.7181C139.66 69.0985 139.265 70.194 138.476 70.9937C137.688 71.8044 136.603 72.1988 135.223 72.1988C133.842 72.1988 132.747 71.7935 131.947 70.9937C131.136 70.194 130.742 69.0985 130.742 67.7181V41.3485C130.742 40.001 131.103 38.9712 131.827 38.2482C132.55 37.5251 133.579 37.1636 134.927 37.1636H147.295C151.502 37.1636 154.668 38.0729 156.783 39.9024C158.897 41.732 159.96 44.3613 159.96 47.8122C159.96 50.4415 159.237 52.6654 157.791 54.495C156.345 56.3245 154.307 57.5406 151.678 58.165C152.762 58.3293 153.704 58.6909 154.515 59.2496C155.315 59.8083 156.115 60.6519 156.903 61.7584L159.96 66.1405C160.551 67.0279 160.847 67.8715 160.847 68.6493L160.858 68.6603ZM150.188 51.1645C151.053 50.5401 151.491 49.5212 151.491 48.108C151.491 46.6947 151.053 45.6211 150.188 44.9748C149.322 44.3284 147.876 44.0107 145.871 44.0107H139.561V52.0957H145.871C147.876 52.0957 149.311 51.778 150.188 51.1645Z" fill="white"/>
<path d="M198.775 68.1654C198.775 69.25 198.337 70.1703 197.471 70.9262C196.606 71.6821 195.609 72.0546 194.491 72.0546C193.735 72.0546 193.045 71.8574 192.421 71.463C191.796 71.0686 191.303 70.477 190.942 69.6882L188.729 64.7145H172.756L170.488 69.6882C170.127 70.477 169.623 71.0686 168.987 71.463C168.352 71.8574 167.651 72.0546 166.895 72.0546C165.777 72.0546 164.769 71.6821 163.86 70.9262C162.951 70.1703 162.502 69.25 162.502 68.1654C162.502 67.5738 162.644 66.9713 162.951 66.3359L175.966 39.6157C176.393 38.7284 177.029 38.0491 177.861 37.5671C178.705 37.096 179.625 36.855 180.644 36.855C181.663 36.855 182.55 37.096 183.405 37.5671C184.259 38.0491 184.905 38.7284 185.333 39.6157L198.348 66.3359C198.643 66.9603 198.797 67.5629 198.797 68.1654H198.775ZM175.802 57.9112H185.661L180.731 46.912L175.802 57.9112Z" fill="white"/>
<path d="M203.803 70.9806C202.981 70.159 202.576 69.0744 202.576 67.7269V41.3573C202.576 40.0098 202.937 38.98 203.66 38.2569C204.383 37.5339 205.413 37.1724 206.761 37.1724H223.325C224.804 37.1724 225.889 37.4572 226.579 38.0378C227.269 38.6185 227.62 39.5278 227.62 40.7767C227.62 42.0256 227.269 42.8801 226.557 43.4388C225.845 43.9976 224.771 44.2714 223.325 44.2714H211.493V50.6803H222.339C223.785 50.6803 224.859 50.9761 225.571 51.5677C226.283 52.1593 226.634 53.0686 226.634 54.2846C226.634 55.5007 226.283 56.3881 225.571 56.9468C224.859 57.5055 223.785 57.7904 222.339 57.7904H211.493V67.7488C211.493 69.1292 211.088 70.2247 210.288 71.0244C209.478 71.8351 208.404 72.2295 207.056 72.2295C205.709 72.2295 204.624 71.8132 203.803 71.0025V70.9806Z" fill="white"/>
<path d="M232.298 70.9806C231.476 70.159 231.071 69.0744 231.071 67.7269V41.3573C231.071 40.0098 231.432 38.98 232.155 38.2569C232.878 37.5339 233.908 37.1724 235.256 37.1724H251.82C253.299 37.1724 254.384 37.4572 255.074 38.0378C255.764 38.6185 256.115 39.5278 256.115 40.7767C256.115 42.0256 255.764 42.8801 255.052 43.4388C254.34 43.9976 253.266 44.2714 251.82 44.2714H239.988V50.6803H250.834C252.28 50.6803 253.354 50.9761 254.066 51.5677C254.778 52.1593 255.129 53.0686 255.129 54.2846C255.129 55.5007 254.778 56.3881 254.066 56.9468C253.354 57.5055 252.28 57.7904 250.834 57.7904H239.988V67.7488C239.988 69.1292 239.583 70.2247 238.783 71.0244C237.972 71.8351 236.899 72.2295 235.551 72.2295C234.204 72.2295 233.119 71.8132 232.298 71.0025V70.9806Z" fill="white"/>
<path d="M260.77 71.0026C259.959 70.2028 259.565 69.1073 259.565 67.7269V41.3573C259.565 40.0098 259.97 38.9362 260.77 38.1255C261.57 37.3258 262.665 36.9204 264.045 36.9204C265.426 36.9204 266.576 37.3258 267.398 38.1255C268.219 38.9362 268.625 40.0098 268.625 41.3573V67.7269C268.625 69.1073 268.208 70.2028 267.398 71.0026C266.576 71.8133 265.459 72.2076 264.045 72.2076C262.632 72.2076 261.57 71.8023 260.77 71.0026Z" fill="white"/>
<path d="M282.264 70.192C279.657 68.7459 277.63 66.6753 276.195 63.9803C274.771 61.2853 274.048 58.1301 274.048 54.5149C274.048 50.8996 274.76 47.7992 276.195 45.0933C277.619 42.3982 279.646 40.3277 282.264 38.8816C284.872 37.4355 287.928 36.7124 291.412 36.7124C295.586 36.7124 299.256 37.8189 302.411 40.01C302.97 40.4044 303.375 40.8316 303.616 41.2917C303.857 41.7519 303.989 42.3435 303.989 43.0665C303.989 44.0854 303.704 44.9508 303.123 45.652C302.543 46.3641 301.853 46.7146 301.031 46.7146C300.538 46.7146 300.1 46.638 299.705 46.4955C299.311 46.3422 298.851 46.1121 298.325 45.7834C297.175 45.0933 296.09 44.6003 295.071 44.3045C294.052 44.0087 293.001 43.8663 291.916 43.8663C288.991 43.8663 286.811 44.7427 285.387 46.5065C283.962 48.2703 283.239 50.9325 283.239 54.5149C283.239 58.0973 283.952 60.8142 285.387 62.578C286.811 64.3309 288.991 65.2183 291.916 65.2183C292.902 65.2183 293.855 65.0649 294.775 64.7472C295.696 64.4404 296.879 63.9474 298.325 63.2901C299.015 62.9286 299.519 62.6876 299.859 62.5561C300.187 62.4246 300.582 62.3589 301.042 62.3589C301.864 62.3589 302.565 62.7095 303.134 63.4216C303.704 64.1337 304 64.9882 304 66.007C304 66.6972 303.879 67.2779 303.627 67.7599C303.375 68.2419 302.981 68.6692 302.422 69.0636C299.267 71.2656 295.597 72.3612 291.423 72.3612C287.939 72.3612 284.894 71.6381 282.275 70.192H282.264Z" fill="white"/>
<path d="M130.325 87.4278C131.124 88.2385 131.53 89.3121 131.53 90.6596V117.029C131.53 118.377 131.124 119.461 130.325 120.283C129.514 121.105 128.44 121.51 127.093 121.51C125.745 121.51 124.672 121.105 123.861 120.305C123.05 119.505 122.656 118.41 122.656 117.029V107.169H108.458V117.029C108.458 118.377 108.052 119.461 107.253 120.283C106.442 121.105 105.368 121.51 104.021 121.51C102.673 121.51 101.6 121.105 100.789 120.305C99.9784 119.505 99.584 118.41 99.584 117.029V90.6596C99.584 89.3121 99.9893 88.2385 100.789 87.4278C101.589 86.628 102.673 86.2227 104.021 86.2227C105.368 86.2227 106.442 86.628 107.253 87.4278C108.052 88.2385 108.458 89.3121 108.458 90.6596V99.9716H122.656V90.6596C122.656 89.3121 123.061 88.2385 123.861 87.4278C124.661 86.628 125.745 86.2227 127.093 86.2227C128.44 86.2227 129.514 86.628 130.325 87.4278Z" fill="white"/>
<path d="M141.566 117.818C138.958 115.254 137.644 111.508 137.644 106.578V90.6596C137.644 89.3121 138.049 88.2385 138.849 87.4278C139.648 86.6171 140.733 86.2227 142.08 86.2227C143.428 86.2227 144.502 86.628 145.312 87.4278C146.112 88.2385 146.517 89.3121 146.517 90.6596V106.928C146.517 109.426 147.076 111.354 148.194 112.691C149.311 114.038 150.921 114.718 153.025 114.718C155.128 114.718 156.739 114.049 157.856 112.691C158.974 111.343 159.532 109.426 159.532 106.928V90.6596C159.532 89.3121 159.938 88.2385 160.737 87.4278C161.537 86.6171 162.622 86.2227 163.969 86.2227C165.317 86.2227 166.401 86.628 167.223 87.4278C168.045 88.2385 168.45 89.3121 168.45 90.6596V106.578C168.45 111.475 167.124 115.211 164.484 117.796C161.833 120.381 158.021 121.663 153.025 121.663C148.029 121.663 144.173 120.381 141.566 117.818Z" fill="white"/>
<path d="M204.373 87.4497C205.183 88.2713 205.578 89.3449 205.578 90.6596V117.029C205.578 118.377 205.183 119.461 204.395 120.283C203.606 121.105 202.587 121.51 201.338 121.51C199.859 121.51 198.742 121.017 197.986 120.031L182.999 101.352V117.029C182.999 118.377 182.615 119.461 181.86 120.283C181.104 121.105 180.085 121.51 178.803 121.51C177.521 121.51 176.535 121.094 175.746 120.283C174.958 119.461 174.563 118.377 174.563 117.029V90.6596C174.563 89.3449 174.958 88.2823 175.746 87.4497C176.535 86.628 177.554 86.2227 178.803 86.2227C180.216 86.2227 181.312 86.7157 182.1 87.7016L197.087 106.337V90.6596C197.087 89.3121 197.471 88.2385 198.249 87.4278C199.016 86.628 200.034 86.2227 201.283 86.2227C202.532 86.2227 203.562 86.639 204.362 87.4497H204.373Z" fill="white"/>
<path d="M220.981 120.261C220.148 119.461 219.721 118.377 219.721 117.029V93.8147H212.775C211.329 93.8147 210.255 93.5079 209.543 92.9054C208.831 92.3029 208.48 91.3716 208.48 90.1227C208.48 88.8738 208.831 87.9536 209.543 87.362C210.255 86.7704 211.329 86.4746 212.775 86.4746H235.847C237.293 86.4746 238.367 86.7704 239.079 87.362C239.78 87.9536 240.141 88.8738 240.141 90.1227C240.141 91.3716 239.791 92.3029 239.079 92.9054C238.367 93.5189 237.293 93.8147 235.847 93.8147H228.901V117.029C228.901 118.377 228.485 119.45 227.641 120.261C226.798 121.072 225.691 121.466 224.311 121.466C222.931 121.466 221.824 121.061 220.981 120.261Z" fill="white"/>
<path d="M244.131 120.129C243.407 119.406 243.046 118.377 243.046 117.029V90.6596C243.046 89.312 243.407 88.2822 244.131 87.5592C244.854 86.8361 245.883 86.4746 247.231 86.4746H264.288C265.702 86.4746 266.764 86.7704 267.487 87.362C268.21 87.9536 268.572 88.8081 268.572 89.9255C268.572 92.2919 267.137 93.4751 264.277 93.4751H251.854V100.081H263.291C266.151 100.081 267.586 101.253 267.586 103.587C267.586 104.704 267.224 105.559 266.501 106.15C265.778 106.742 264.705 107.038 263.302 107.038H251.865V114.236H264.288C267.148 114.236 268.583 115.419 268.583 117.785C268.583 118.902 268.221 119.757 267.498 120.349C266.775 120.94 265.702 121.236 264.299 121.236H247.242C245.894 121.236 244.854 120.874 244.141 120.151L244.131 120.129Z" fill="white"/>
<path d="M302.599 117.96C302.599 119.011 302.161 119.888 301.295 120.6C300.43 121.301 299.411 121.662 298.261 121.662C297.472 121.662 296.727 121.476 296.037 121.126C295.347 120.764 294.755 120.227 294.262 119.493L287.853 110.126C287.393 109.469 286.911 108.987 286.396 108.669C285.881 108.363 285.29 108.198 284.599 108.198H281.4V117.017C281.4 118.398 281.006 119.493 280.217 120.293C279.428 121.104 278.344 121.498 276.963 121.498C275.583 121.498 274.488 121.093 273.688 120.293C272.877 119.493 272.483 118.398 272.483 117.017V90.6478C272.483 89.3003 272.844 88.2705 273.567 87.5475C274.29 86.8244 275.32 86.4629 276.668 86.4629H289.036C293.243 86.4629 296.409 87.3722 298.524 89.2017C300.649 91.0313 301.701 93.6606 301.701 97.1115C301.701 99.7408 300.978 101.965 299.531 103.794C298.085 105.624 296.048 106.84 293.418 107.464C294.503 107.629 295.445 107.99 296.256 108.549C297.056 109.108 297.855 109.951 298.644 111.058L301.701 115.44C302.292 116.327 302.588 117.171 302.588 117.949L302.599 117.96ZM291.928 100.464C292.794 99.8394 293.232 98.8205 293.232 97.4073C293.232 95.9941 292.794 94.9204 291.928 94.2741C291.052 93.6277 289.617 93.31 287.612 93.31H281.302V101.395H287.612C289.617 101.395 291.052 101.077 291.928 100.464Z" fill="white"/>
<path d="M71.08 70.8556C66.7088 72.3674 57.5501 75.0186 51.5027 73.2C51.5027 73.2 55.3481 72.6084 58.0541 71.2499C52.7626 71.3047 39.6271 66.4077 39.2437 56.0439C51.9519 71.8306 68.9546 66.5501 70.1159 64.7425C67.0155 53.8857 53.168 45.3624 49.1254 43.0728C47.3726 44.7599 44.568 46.699 40.2516 47.8822C40.2516 47.8822 40.646 47.3673 41.2485 46.5347L39.0794 48.3094L38.5864 47.926V56.0549C38.2248 66.3967 25.0455 71.3376 19.776 71.2609C22.482 72.6194 26.3273 73.211 26.3273 73.211C20.28 75.0186 11.1213 72.3674 6.75008 70.8665C2.81711 75.9389 15.6568 81.6466 18.9653 82.2053H27.9597C28.858 82.9831 33.3716 86.949 34.1714 87.6392C34.1714 88.0007 34.3138 104.423 34.3138 104.784L38.5754 109.145L38.9041 109.484L43.5053 104.784C43.5053 104.467 43.6477 87.9569 43.6477 87.6392C44.4694 86.9161 48.9392 83.016 49.8594 82.2053C49.8594 82.2053 58.8538 82.2053 58.8428 82.2053C62.1623 81.6466 75.002 75.9498 71.0581 70.8665L71.08 70.8556Z" fill="url(#paint0_linear_206_1662)"/>
<path d="M70.2363 70.7218C65.8651 72.2336 56.7064 74.8848 50.6591 73.0662C50.6591 73.0662 54.5044 72.4746 57.2104 71.1162C51.9189 71.1709 38.7834 66.2739 38.4 55.9101C51.1082 71.6968 68.1109 66.4163 69.2722 64.6087C66.1718 53.7519 52.3243 45.2286 48.2817 42.939C46.5289 44.6261 43.7243 46.5652 39.4079 47.7484C39.4079 47.7484 39.8023 47.2335 40.4048 46.4009L38.2357 48.1756L37.7427 47.7922V109.011L38.0713 109.35L42.6726 104.651C42.6726 104.333 42.815 87.8231 42.815 87.5054C43.6367 86.7823 48.1065 82.8822 49.0267 82.0715C49.0267 82.0715 58.0211 82.0715 58.0101 82.0715C61.3296 81.5128 74.1693 75.816 70.2253 70.7327L70.2363 70.7218Z" fill="url(#paint1_linear_206_1662)"/>
<path d="M38.6739 6.4917C38.4 6.67794 38.0823 6.908 37.7427 7.15998C35.1682 9.0443 30.7751 12.6486 26.5244 17.9291C27.4666 21.1609 29.7453 27.767 31.1585 34.7127V32.5326L34.478 36.3012V28.9502L38.0823 39.4345L41.84 28.9502V39.5659L47.1534 32.6093C48.9172 25.4116 51.0754 20.7775 51.9299 17.9291C47.1095 11.9475 41.0074 8.10214 38.6849 6.4917H38.6739Z" fill="url(#paint2_linear_206_1662)"/>
<path d="M36.1428 46.5356C36.6029 47.2696 36.9206 47.7407 36.9206 47.7407C32.5494 46.5465 30.3803 44.476 28.7479 42.022L28.4083 42.2849L23.7194 45.4948C23.2155 45.8344 22.6896 46.185 22.1418 46.5685L22.0761 46.6123C16.4231 50.5891 9.01731 57.0418 6.84814 64.6119C8.00941 66.4305 25.0121 71.7001 37.7204 55.9134V47.7845L36.1209 46.5356H36.1428Z" fill="url(#paint3_linear_206_1662)"/>
<path d="M40.4055 46.3916L46.7267 41.1988L45.7408 33.8477L48.3591 30.583L46.0475 32.6098C45.3464 35.4691 44.711 38.2189 44.2399 40.4867C42.991 42.7106 41.4024 45.0003 40.3945 46.4026L40.4055 46.3916Z" fill="#870000"/>
<path d="M31.7067 35.4887C31.5424 34.5246 31.3562 33.5387 31.159 32.5308L30.3921 42.0181L36.1546 46.5317C35.1358 44.9213 33.4048 42.0729 32.8461 40.3858L31.7177 35.4887H31.7067Z" fill="#870000"/>
<path d="M29.6685 26.1055L27.9266 19.1379L36.0993 11.7868L38.5533 18.3162L41.0073 11.7868L49.18 19.1379L47.5476 27.3106L52.4447 15.0515L37.7426 2.79248L23.0295 16.6839L29.6685 26.1055Z" fill="#DB3541"/>
<path d="M69.8966 100.053V78L61.2857 91.0588L48.1831 97.6101V140.533C50.9658 138.824 53.5184 136.852 55.83 134.782L52.2914 114.777L59.6862 131.013C61.3734 129.227 62.8852 127.442 64.1999 125.743L58.4154 112.729L66.5881 122.534C69.4584 118.458 70.9703 115.5 70.9703 115.5L66.0623 104.15L69.8966 100.064V100.053Z" fill="url(#paint4_linear_206_1662)"/>
<path d="M18.9327 71.1187C21.6387 72.4771 25.4841 73.0687 25.4841 73.0687C19.4367 74.8763 10.278 72.2251 5.90682 70.7243C1.97384 75.7966 14.8135 81.5043 18.1221 82.0631H27.1164C28.0147 82.8409 32.5284 86.8067 33.3281 87.4969C33.3281 87.8584 33.4705 104.281 33.4705 104.642L37.7322 109.002V55.9126C37.3706 66.2545 24.1913 71.1953 18.9218 71.1187H18.9327Z" fill="url(#paint5_linear_206_1662)"/>
<path d="M5.17163 115.486C5.17163 115.486 6.68347 118.444 9.55378 122.519L17.7265 112.714L11.942 125.729C13.2676 127.427 14.7795 129.213 16.4557 130.998L23.8505 114.763L20.3119 134.767C22.6235 136.838 25.1761 138.81 27.9588 140.519V97.5954L14.8562 91.0441L6.24525 77.9854V100.039L10.0796 104.125L5.17163 115.475V115.486Z" fill="url(#paint6_linear_206_1662)"/>
<path d="M67.9681 122.116L59.8064 114.765L66.5001 125.38L67.9681 122.116Z" fill="white"/>
<path d="M53.2654 117.205L61.5915 131.918L59.1484 132.74L53.2654 117.205Z" fill="white"/>
<path d="M54.8978 69.6497C42.584 67.8639 38.6072 55.9116 38.6072 55.9116C39.8232 66.8451 46.4074 69.6168 49.705 70.3179L53.3531 70.0769L54.8978 69.6497Z" fill="white"/>
<path d="M26.5576 42.884L25.8017 44.0562C25.8017 44.0562 25.4839 49.3696 36.9213 51.8236C37.1514 51.8236 36.5489 51.5059 35.541 50.9143C29.3183 48.6027 27.204 44.6259 26.5576 42.873V42.884Z" fill="white"/>
<path d="M37.7425 55.9116C37.7425 55.9116 33.8205 67.6886 21.7039 69.6058C21.9558 69.7154 22.2407 69.8359 22.5693 69.9564L24.4646 70.4823C24.607 70.5151 24.7495 70.537 24.8919 70.559C26.1956 70.5042 36.2088 69.6716 37.7425 55.9226V55.9116Z" fill="white"/>
<path d="M8.92993 121.621L16.5658 114.105L9.94878 125.379L8.92993 121.621Z" fill="white"/>
<path d="M22.5807 117.543L14.8572 131.917L17.3112 132.739L22.5807 117.543Z" fill="white"/>
<path opacity="0.7" d="M45.9053 37.9346L38.1379 48.6927L31.74 38.7562L26.2952 42.0209C26.2952 42.0209 27.5988 48.9776 37.8421 51.6507C37.9407 51.6726 38.0393 51.7055 38.1489 51.7274C38.2475 51.7055 38.3461 51.6726 38.4556 51.6507C48.6989 48.9885 50.0026 42.0209 50.0026 42.0209L45.9162 37.9346H45.9053Z" fill="#6C7C8A"/>
<path opacity="0.7" d="M57.3523 69.8033C57.3523 69.8033 65.525 67.3493 72.0654 66.5386C72.0654 66.5386 58.174 79.6083 45.0933 70.6249L57.3523 69.8033Z" fill="#6C7C8A"/>
<path opacity="0.7" d="M61.4391 130.288L57.3528 111.489L65.5255 124.569L61.4391 130.288Z" fill="#6C7C8A"/>
<path opacity="0.7" d="M52.6524 137.541L51.6335 113.122L58.1739 132.732C58.1739 132.732 55.7199 138.45 54.9092 138.45C54.0985 138.45 52.6634 137.53 52.6634 137.53L52.6524 137.541Z" fill="#6C7C8A"/>
<path opacity="0.7" d="M70.4222 77.9771L63.8818 107.392L72.0545 99.2195L70.4222 77.9771Z" fill="#6C7C8A"/>
<path opacity="0.7" d="M20.5752 68.9907C20.5752 68.9907 23.8399 71.4447 30.3803 70.6231C30.3803 70.6231 22.2076 78.7958 8.31616 68.9907H20.5752Z" fill="#6C7C8A"/>
<path opacity="0.7" d="M5.86208 77.9771L12.4024 107.392L4.22974 99.2195L5.86208 77.9771Z" fill="#6C7C8A"/>
<path opacity="0.7" d="M14.8571 130.288L18.9435 111.489L10.7708 124.569L14.8571 130.288Z" fill="#6C7C8A"/>
<path opacity="0.7" d="M23.6428 137.541L24.6617 113.122L18.1213 132.732C18.1213 132.732 20.5753 138.45 21.386 138.45C22.1967 138.45 23.6319 137.53 23.6319 137.53L23.6428 137.541Z" fill="#6C7C8A"/>
<path d="M74.3885 101.826V78.6331C78.661 73.0897 73.7859 64.0953 73.7859 64.0953C69.6777 50.4559 58.7004 44.8139 50.0237 38.1311C52.2805 28.2932 56.1697 17.9294 56.1587 18.0937L56.5312 16.8339L55.7315 15.7931C46.9234 4.82678 41.1499 2.01126 38.674 0.378906C38.4877 0.477505 38.1591 0.652796 37.7428 0.915725C34.9053 2.65763 27.2475 8.06958 20.8167 16.8339L21.1892 18.0937C21.2111 18.028 25.0017 28.085 27.2804 37.923L23.0735 40.5413C16.8399 44.4195 5.12864 53.0085 2.35693 64.0953C2.35693 64.0953 -2.51821 73.0787 1.75439 78.6221V101.815L5.58876 105.901L0.680765 115.476L0.735536 116.133C0.691715 119.179 16.1607 141.166 32.4513 148.539V111.466C32.6157 111.598 36.5705 114.698 37.7428 115.618C37.94 115.783 38.0714 115.881 38.0714 115.881C38.0386 115.914 43.5272 111.587 43.6915 111.466V148.539C60.0369 141.133 75.495 119.102 75.4073 116.133L75.4621 115.476L70.5541 105.901L74.3885 101.815V101.826ZM27.9487 140.52C25.166 138.811 22.6134 136.839 20.3018 134.768L23.8404 114.764L16.4455 131C14.7584 129.214 13.2466 127.428 11.9319 125.73L17.7164 112.715L9.54365 122.52C6.67335 118.445 5.16151 115.487 5.16151 115.487L10.0695 104.137L6.23514 100.051V77.9977L14.8461 91.0565L27.9487 97.6078V140.531V140.52ZM42.8042 87.496C42.8042 87.8137 42.6617 104.323 42.6617 104.641L38.0605 109.341L37.7318 109.001L33.4702 104.641C33.4702 104.269 33.3278 87.8575 33.3278 87.496C32.528 86.7948 28.0144 82.84 27.1161 82.0621H18.1217C14.8022 81.5034 1.96254 75.7956 5.90647 70.7233C10.2777 72.2352 19.4363 74.8863 25.4837 73.0678C25.4837 73.0678 21.6384 72.4762 18.9324 71.1177C24.2019 71.1944 37.3812 66.2535 37.7428 55.9117C25.0345 71.6983 8.03182 66.4178 6.87055 64.6102C9.03971 57.0291 16.4455 50.5874 22.0985 46.6106L22.1642 46.5667C22.712 46.1833 23.2379 45.8218 23.7418 45.4931L28.4307 42.2832L28.7703 42.0203C30.4027 44.4743 32.5718 46.5448 36.943 47.739C36.943 47.739 33.6783 42.831 32.8567 40.3879L31.7283 35.4909C30.4575 27.9207 27.62 21.6323 26.5464 17.9294C30.7971 12.6489 35.2011 9.0446 37.7647 7.16028C38.1043 6.90831 38.422 6.67824 38.6959 6.492C41.0184 8.10244 46.025 11.9478 50.8563 17.9294C49.6512 21.8953 45.9155 32.5 44.2722 40.4755C42.2892 44.0141 39.4408 47.739 39.4408 47.739C43.7682 46.5558 46.5618 44.6276 48.3147 42.9296C52.3572 45.2192 66.2048 53.7535 69.3052 64.5993C68.1439 66.4179 51.1412 71.6874 38.433 55.9007C38.8164 66.2645 51.9519 71.1615 57.2433 71.1068C54.5373 72.4652 50.692 73.0568 50.692 73.0568C56.7394 74.8644 65.8981 72.2132 70.2692 70.7124C74.2022 75.7847 61.3625 81.4924 58.054 82.0512H49.0706C48.1504 82.8619 43.6806 86.762 42.8589 87.485L42.8042 87.496ZM70.9594 115.487C70.9594 115.487 69.4476 118.445 66.5773 122.52L58.4046 112.715L64.189 125.73C62.8634 127.428 61.3516 129.214 59.6754 131L52.2805 114.764L55.8191 134.768C53.5075 136.839 50.9549 138.811 48.1723 140.52V97.5968L61.2749 91.0455L69.8858 77.9867V100.04L66.0514 104.126L70.9594 115.476V115.487Z" fill="#1C1B35"/>
<path d="M42.4214 36.1698L41.8189 28.9502L38.0612 38.3499L34.4569 28.9502V36.3012L31.1374 32.5326L30.5129 31.8972L32.6164 40.5191L35.9249 46.2487C35.9906 46.3473 36.0783 46.4459 36.1221 46.5336L37.5353 49.0423L37.7325 49.371H38.5432L40.3947 46.3911C41.4026 44.9888 42.9911 42.6992 44.24 40.4752C44.7111 38.2075 46.0696 34.6689 46.7707 31.8095L42.4214 36.1588V36.1698Z" fill="url(#paint7_linear_206_1662)"/>
<path d="M24.2791 86.8482H21.1459L17.3992 86.0156L19.897 87.7575L22.1319 89.3132L27.1933 91.8439V89.0393L24.2791 86.8482Z" fill="url(#paint8_linear_206_1662)"/>
<path d="M51.8646 87.297H54.9978L58.7445 86.4644L56.2358 88.2063L54.0118 89.7619L48.9504 92.2926V89.488L51.8646 87.297Z" fill="url(#paint9_linear_206_1662)"/>
<defs>
<linearGradient id="paint0_linear_206_1662" x1="54.395" y1="46.1074" x2="23.0845" y2="100.336" gradientUnits="userSpaceOnUse">
<stop stop-color="#F2F2F2"/>
<stop offset="1" stop-color="#9FACBC"/>
</linearGradient>
<linearGradient id="paint1_linear_206_1662" x1="60.5408" y1="50.0052" x2="29.2304" y2="104.234" gradientUnits="userSpaceOnUse">
<stop stop-color="#F2F2F2"/>
<stop offset="1" stop-color="#9FACBC"/>
</linearGradient>
<linearGradient id="paint2_linear_206_1662" x1="26.5135" y1="23.0233" x2="51.908" y2="23.0233" gradientUnits="userSpaceOnUse">
<stop stop-color="#FD9D05"/>
<stop offset="1" stop-color="#FD6A07"/>
</linearGradient>
<linearGradient id="paint3_linear_206_1662" x1="31.5635" y1="43.6434" x2="16.2369" y2="70.1773" gradientUnits="userSpaceOnUse">
<stop stop-color="#F2F2F2"/>
<stop offset="1" stop-color="#9FACBC"/>
</linearGradient>
<linearGradient id="paint4_linear_206_1662" x1="74.5308" y1="80.6731" x2="42.0262" y2="136.973" gradientUnits="userSpaceOnUse">
<stop stop-color="#F2F2F2"/>
<stop offset="1" stop-color="#9FACBC"/>
</linearGradient>
<linearGradient id="paint5_linear_206_1662" x1="40.482" y1="57.5011" x2="17.4976" y2="97.3239" gradientUnits="userSpaceOnUse">
<stop stop-color="#F2F2F2"/>
<stop offset="1" stop-color="#9FACBC"/>
</linearGradient>
<linearGradient id="paint6_linear_206_1662" x1="27.9259" y1="90.5073" x2="6.27813" y2="128.008" gradientUnits="userSpaceOnUse">
<stop stop-color="#F2F2F2"/>
<stop offset="1" stop-color="#9FACBC"/>
</linearGradient>
<linearGradient id="paint7_linear_206_1662" x1="38.6528" y1="28.9502" x2="38.6528" y2="49.371" gradientUnits="userSpaceOnUse">
<stop stop-color="#DB3541"/>
<stop offset="1" stop-color="#DB451E"/>
</linearGradient>
<linearGradient id="paint8_linear_206_1662" x1="17.3992" y1="88.9297" x2="27.1933" y2="88.9297" gradientUnits="userSpaceOnUse">
<stop stop-color="#FD9D05"/>
<stop offset="1" stop-color="#FD6A07"/>
</linearGradient>
<linearGradient id="paint9_linear_206_1662" x1="48.9504" y1="89.3785" x2="58.7445" y2="89.3785" gradientUnits="userSpaceOnUse">
<stop stop-color="#FD9D05"/>
<stop offset="1" stop-color="#FD6A07"/>
</linearGradient>
</defs>
</svg>
