<svg width="35" height="35" viewBox="0 0 35 35" fill="none" xmlns="http://www.w3.org/2000/svg">
<path fill-rule="evenodd" clip-rule="evenodd" d="M35 17.5C35 7.83502 27.165 0 17.5 0C7.83502 0 0 7.83502 0 17.5C0 27.165 7.83502 35 17.5 35C27.165 35 35 27.165 35 17.5ZM9.975 9.975C8.75 11.2117 8.75 13.1892 8.75 17.15V17.85C8.75 21.805 8.75 23.7825 9.975 25.025C11.2117 26.25 13.1892 26.25 17.15 26.25H17.85C21.805 26.25 23.7825 26.25 25.025 25.025C26.25 23.7883 26.25 21.8108 26.25 17.85V17.15C26.25 13.195 26.25 11.2175 25.025 9.975C23.7883 8.75 21.8108 8.75 17.85 8.75H17.15C13.195 8.75 11.2175 8.75 9.975 9.975Z" fill="white"/>
<path d="M18.06 21.3558C14.07 21.3558 11.795 18.6258 11.7017 14.0758H13.7083C13.7725 17.4125 15.2425 18.8242 16.4092 19.1158V14.0758H18.2933V16.9517C19.4425 16.8292 20.6558 15.5167 21.0642 14.07H22.9425C22.7893 14.8189 22.4834 15.5281 22.0438 16.1534C21.6042 16.7787 21.0403 17.3066 20.3875 17.7042C21.116 18.0668 21.7594 18.5797 22.2753 19.2092C22.7911 19.8386 23.1676 20.5703 23.38 21.3558H21.3092C20.8658 19.9733 19.7575 18.9 18.2933 18.7542V21.3558H18.06Z" fill="white"/>
</svg>
