<svg viewBox="0 0 16 16" fill="none" xmlns="http://www.w3.org/2000/svg">
<path d="M0.195262 1.13807C-0.0650875 0.877722 -0.0650875 0.455612 0.195262 0.195262C0.455612 -0.0650874 0.877723 -0.0650874 1.13807 0.195262L8 7.05719L14.8619 0.195262C15.1223 -0.0650874 15.5444 -0.0650874 15.8047 0.195262C16.0651 0.455612 16.0651 0.877722 15.8047 1.13807L8.94281 8L15.8047 14.8619C16.0651 15.1223 16.0651 15.5444 15.8047 15.8047C15.5444 16.0651 15.1223 16.0651 14.8619 15.8047L8 8.94281L1.13807 15.8047C0.877723 16.0651 0.455612 16.0651 0.195263 15.8047C-0.0650866 15.5444 -0.0650866 15.1223 0.195263 14.8619L7.05719 8L0.195262 1.13807Z" fill="white"/>
</svg>
