<svg width="781" height="676" viewBox="0 0 781 676" fill="none" xmlns="http://www.w3.org/2000/svg">
<path d="M732.384 602.589C745.992 595.785 754.403 601.386 767.498 606.087C774.846 608.725 776.958 598.44 779.03 593.259" stroke="#FD8806" stroke-width="3" stroke-linecap="round"/>
<path d="M678.028 569.644L574 673.672" stroke="#DB3F2C" stroke-width="3" stroke-linecap="round"/>
<path d="M247 8.72487C259.63 -1.07006 262.282 -1.24862 263.326 15.4627C264.22 29.7677 266.252 29.7157 279.652 29.7157" stroke="#FD8806" stroke-width="3" stroke-linecap="round"/>
<path d="M685.737 182.773C689.135 167.481 697.719 161.485 712.688 159.709C724.753 158.277 729.591 154.292 732.384 143.123" stroke="#FD8806" stroke-width="3" stroke-linecap="round"/>
<path d="M763 507L658.972 611.028" stroke="#DB3F2C" stroke-width="3" stroke-linecap="round"/>
<path d="M102.66 597.924C103.738 571.521 116.972 586.262 132.98 586.262" stroke="#FD8806" stroke-width="3" stroke-linecap="round"/>
<path d="M209 234L124.786 318.214" stroke="#DB3F2C" stroke-width="3" stroke-linecap="round"/>
<path d="M741.292 551.037L637.263 655.066" stroke="#DB3F2C" stroke-width="3" stroke-linecap="round"/>
<path d="M140.214 284.712L56.0003 368.925" stroke="#DB3F2C" stroke-width="3" stroke-linecap="round"/>
<path d="M22.223 61.3994C20.5178 64.7621 18.7343 66.8579 15.3873 68.8039C12.2861 70.6071 9.08426 71.556 5.52943 71.7995C4.40992 71.8762 1.21606 71.5422 2.17828 72.1195C3.02593 72.6281 4.05081 72.7548 4.99609 73.044C6.44964 73.4887 7.83951 73.8827 9.24503 74.4751C15.8521 77.2599 20.8728 84.4505 19.8229 91.7998" stroke="#FD8806" stroke-width="3" stroke-linecap="round"/>
<path d="M214 181.928C190.379 146.496 152.356 112.581 110.129 102.362C102 100.396 67.4424 96.2379 70.2424 114.827C71.2241 121.344 82.9867 128.283 88.7315 123.448C102.527 111.838 56.3799 84.3729 50.2992 81.6921C38.0756 76.3032 23.6046 73.4863 10.2051 73.4863" stroke="#FD8806" stroke-width="3" stroke-linecap="round" stroke-linejoin="round"/>
</svg>
