<svg width="390" height="792" viewBox="0 0 390 792" fill="none" xmlns="http://www.w3.org/2000/svg">
<path d="M24.2305 376.408C33.153 369.488 35.0261 369.362 35.7639 381.168C36.3955 391.273 37.8305 391.237 47.2974 391.237" stroke="#FD8806" stroke-width="3" stroke-linecap="round"/>
<path d="M343.87 445.609C346.271 434.806 352.334 430.57 362.909 429.315C371.433 428.304 374.85 425.489 376.823 417.599" stroke="#FD8806" stroke-width="3" stroke-linecap="round"/>
<path d="M376.824 742.183C386.437 737.377 392.379 741.334 401.63 744.655C406.821 746.518 408.313 739.252 409.777 735.593" stroke="#FD8806" stroke-width="3" stroke-linecap="round"/>
<path d="M293 136.853C301.897 129.785 303.764 129.656 304.5 141.715C305.13 152.038 306.561 152 316 152" stroke="#FD8806" stroke-width="3" stroke-linecap="round"/>
<path d="M5 10C5.4976 -3.39879 11.6082 4.08198 19 4.08198" stroke="#FD8806" stroke-width="3" stroke-linecap="round"/>
<path d="M370.458 730.548L314.83 786.176" stroke="#DB3F2C" stroke-width="3" stroke-linecap="round"/>
<path d="M382.065 707L326.438 762.628" stroke="#DB3F2C" stroke-width="3" stroke-linecap="round"/>
<path d="M336.628 740.497L281 796.125" stroke="#DB3F2C" stroke-width="3" stroke-linecap="round"/>
<path d="M293.199 398.951C304.004 384.458 312.151 364.42 310.222 346.078C309.851 342.547 306.591 328.134 299.556 331.902C297.089 333.223 295.99 338.915 298.742 340.524C305.35 344.387 309.76 322.02 309.966 319.206C310.38 313.55 309.445 307.362 307.536 302.003" stroke="#FD8806" stroke-width="2" stroke-linecap="round" stroke-linejoin="round"/>
<path d="M314.082 305.087C312.494 304.885 311.402 304.47 310.147 303.409C308.984 302.425 308.149 301.28 307.545 299.893C307.355 299.456 307.033 298.131 306.939 298.598C306.857 299.01 306.952 299.438 306.971 299.857C307 300.502 307.041 301.114 307.004 301.76C306.832 304.799 304.671 307.831 301.582 308.458" stroke="#FD8806" stroke-width="2" stroke-linecap="round"/>
</svg>
