<svg width="45" height="45" viewBox="0 0 45 45" fill="none" xmlns="http://www.w3.org/2000/svg">
<path d="M15.045 18.0975C15.165 23.9475 18.09 27.4575 23.22 27.4575H23.52V24.1125C25.4025 24.3 26.8275 25.68 27.3975 27.4575H30.06C29.7869 26.4474 29.3028 25.5068 28.6396 24.6975C27.9764 23.8882 27.1492 23.2287 26.2125 22.7625C27.0519 22.2513 27.7768 21.5726 28.342 20.7686C28.9072 19.9647 29.3006 19.0528 29.4975 18.09H27.0825C26.5575 19.95 24.9975 21.6375 23.52 21.795V18.0975H21.0975V24.5775C19.5975 24.2025 17.7075 22.3875 17.625 18.0975H15.045Z" fill="white"/>
<path fill-rule="evenodd" clip-rule="evenodd" d="M22.5 0C34.9264 0 45 10.0736 45 22.5C45 34.9264 34.9264 45 22.5 45C10.0736 45 0 34.9264 0 22.5C0 10.0736 10.0736 0 22.5 0ZM11.25 22.05C11.25 16.9575 11.25 14.415 12.825 12.825C14.4225 11.25 16.965 11.25 22.05 11.25H22.95C28.0425 11.25 30.585 11.25 32.175 12.825C33.75 14.4225 33.75 16.965 33.75 22.05V22.95C33.75 28.0425 33.75 30.585 32.175 32.175C30.5775 33.75 28.035 33.75 22.95 33.75H22.05C16.9575 33.75 14.415 33.75 12.825 32.175C11.25 30.5775 11.25 28.035 11.25 22.95V22.05Z" fill="white"/>
</svg>
